<?xml version="1.0" encoding="UTF-8"?>
<svg id="Layer_2" data-name="Layer 2" xmlns="http://www.w3.org/2000/svg" xmlns:xlink="http://www.w3.org/1999/xlink" viewBox="0 0 335.09 177.26">
  <defs>
    <style>
      .cls-1 {
        fill: url(#linear-gradient);
      }

      .cls-1, .cls-2 {
        stroke-width: 0px;
      }

      .cls-2 {
        fill: #fff;
      }
    </style>
    <linearGradient id="linear-gradient" x1="134.53" y1="-30.56" x2="234.02" y2="328.63" gradientUnits="userSpaceOnUse">
      <stop offset="0" stop-color="#3a0087"/>
      <stop offset="1" stop-color="#a82eff"/>
    </linearGradient>
  </defs>
  <g id="Layer_1-2" data-name="Layer 1">
    <rect class="cls-1" width="335.09" height="177.26"/>
    <g>
      <g>
        <path class="cls-2" d="M121.87,99.48c-1.81,0-3.38-.66-4.69-1.97s-1.97-2.88-1.97-4.69v-8.36c0-1.81.66-3.38,1.97-4.69,1.32-1.32,2.88-1.97,4.69-1.97h12.54c.78,0,1.4.26,1.85.78.42.45.63,1.02.63,1.7s-.21,1.25-.63,1.7c-.45.52-1.07.78-1.85.78h-12.54c-.44,0-.83.17-1.18.52-.35.35-.52.74-.52,1.18v8.36c0,.44.17.83.52,1.18.35.35.74.52,1.18.52h12.54c.78,0,1.4.26,1.85.78.42.45.63,1.02.63,1.7s-.21,1.25-.63,1.7c-.45.52-1.07.78-1.85.78h-12.54ZM126.05,91.11c-.78,0-1.4-.26-1.86-.78-.42-.45-.63-1.02-.63-1.7s.21-1.25.63-1.7c.45-.52,1.07-.78,1.86-.78h8.36c.78,0,1.4.26,1.85.78.42.45.63,1.02.63,1.7s-.21,1.25-.63,1.7c-.45.52-1.07.78-1.85.78h-8.36Z"/>
        <path class="cls-2" d="M145.13,99.48c-1.81,0-3.38-.66-4.69-1.97s-1.97-2.88-1.97-4.69v-12.54c0-.78.26-1.4.78-1.86.45-.42,1.02-.63,1.7-.63s1.25.21,1.7.63c.52.45.78,1.07.78,1.86v12.54c0,.44.17.83.52,1.18.35.35.74.52,1.18.52h8.36c.78,0,1.4.26,1.86.78.42.45.63,1.02.63,1.7s-.21,1.25-.63,1.7c-.45.52-1.07.78-1.86.78h-8.36Z"/>
        <path class="cls-2" d="M163.37,99.48c-1.81,0-3.38-.66-4.69-1.97s-1.97-2.88-1.97-4.69v-8.36c0-1.81.66-3.38,1.97-4.69,1.32-1.32,2.88-1.97,4.69-1.97h12.54c.78,0,1.4.26,1.85.78.42.45.63,1.02.63,1.7s-.21,1.25-.63,1.7c-.45.52-1.07.78-1.85.78h-12.54c-.44,0-.83.17-1.18.52-.35.35-.52.74-.52,1.18v8.36c0,.44.17.83.52,1.18.35.35.74.52,1.18.52h12.54c.78,0,1.4.26,1.85.78.42.45.63,1.02.63,1.7s-.21,1.25-.63,1.7c-.45.52-1.07.78-1.85.78h-12.54ZM167.55,91.11c-.78,0-1.4-.26-1.86-.78-.42-.45-.63-1.02-.63-1.7s.21-1.25.63-1.7c.45-.52,1.07-.78,1.86-.78h8.36c.78,0,1.4.26,1.85.78.42.45.63,1.02.63,1.7s-.21,1.25-.63,1.7c-.45.52-1.07.78-1.85.78h-8.36Z"/>
        <path class="cls-2" d="M205.04,96.99v-12.54c0-.44-.17-.83-.51-1.18-.34-.35-.74-.52-1.19-.52s-.85.17-1.19.5c-.34.33-.51.73-.51,1.2v8.36c0,1.81-.66,3.38-1.97,4.69-1.32,1.32-2.87,1.97-4.66,1.97s-3.42-.65-4.72-1.95c-1.3-1.3-1.95-2.87-1.95-4.72v-8.36c0-.44-.17-.83-.52-1.18-.35-.35-.74-.52-1.18-.52-.47,0-.87.17-1.2.5-.33.33-.5.73-.5,1.2v12.54c0,.78-.25,1.39-.75,1.83s-1.08.65-1.74.65-1.26-.22-1.75-.65c-.49-.44-.73-1.05-.73-1.83v-12.54c0-1.85.65-3.42,1.95-4.72s2.87-1.95,4.72-1.95,3.35.66,4.68,1.97c1.32,1.32,1.99,2.88,1.99,4.69v8.36c0,.47.16.87.49,1.2.33.33.73.5,1.2.5.44,0,.82-.17,1.16-.52.34-.35.51-.74.51-1.18v-8.36c0-1.85.65-3.42,1.96-4.72s2.87-1.95,4.7-1.95,3.38.66,4.69,1.97c1.32,1.32,1.97,2.88,1.97,4.69v12.54c0,.78-.24,1.39-.73,1.83-.49.44-1.07.65-1.75.65s-1.23-.21-1.7-.63c-.52-.45-.78-1.07-.78-1.86Z"/>
        <path class="cls-2" d="M218.27,99.48c-1.81,0-3.38-.66-4.69-1.97-1.31-1.32-1.97-2.88-1.97-4.69v-8.36c0-1.81.66-3.38,1.97-4.69,1.32-1.32,2.88-1.97,4.69-1.97h12.54c.78,0,1.4.26,1.86.78.42.45.63,1.02.63,1.7s-.21,1.25-.63,1.7c-.45.52-1.07.78-1.86.78h-12.54c-.44,0-.83.17-1.18.52-.35.35-.52.74-.52,1.18v8.36c0,.44.17.83.52,1.18.35.35.74.52,1.18.52h12.54c.78,0,1.4.26,1.86.78.42.45.63,1.02.63,1.7s-.21,1.25-.63,1.7c-.45.52-1.07.78-1.86.78h-12.54ZM222.45,91.11c-.78,0-1.4-.26-1.85-.78-.42-.45-.63-1.02-.63-1.7s.21-1.25.63-1.7c.45-.52,1.07-.78,1.85-.78h8.36c.78,0,1.4.26,1.86.78.42.45.63,1.02.63,1.7s-.21,1.25-.63,1.7c-.45.52-1.07.78-1.86.78h-8.36Z"/>
        <path class="cls-2" d="M249.89,99.48c-1.85,0-3.42-.65-4.72-1.96-1.3-1.31-1.95-2.87-1.95-4.7v-8.36c0-.44-.17-.83-.52-1.18-.35-.35-.74-.52-1.17-.52-.47,0-.87.17-1.2.5-.33.33-.5.73-.5,1.2v12.54c0,.78-.26,1.4-.78,1.86-.45.42-1.02.63-1.7.63s-1.25-.21-1.7-.63c-.52-.45-.78-1.07-.78-1.86v-12.54c0-1.85.65-3.42,1.95-4.72s2.87-1.95,4.72-1.95,3.37.66,4.69,1.97c1.32,1.32,1.97,2.88,1.97,4.69v8.36c0,.47.16.87.5,1.2.33.33.73.5,1.2.5.44,0,.83-.17,1.18-.52.35-.35.52-.74.52-1.18v-12.54c0-.78.26-1.4.78-1.86.45-.42,1.02-.63,1.7-.63s1.24.21,1.7.63c.52.45.78,1.07.78,1.86v12.54c0,1.81-.66,3.38-1.97,4.69-1.32,1.32-2.88,1.97-4.69,1.97Z"/>
        <path class="cls-2" d="M271.44,82.75v14.24c0,.78-.26,1.4-.78,1.86-.45.42-1.02.63-1.7.63s-1.25-.21-1.7-.63c-.52-.45-.78-1.07-.78-1.86v-14.24h-5.88c-.78,0-1.4-.26-1.85-.78-.42-.47-.63-1.04-.63-1.7s.22-1.24.65-1.74,1.05-.74,1.83-.74h16.73c.78,0,1.4.26,1.85.78.42.45.63,1.02.63,1.7s-.21,1.25-.63,1.7c-.45.52-1.07.78-1.85.78h-5.88Z"/>
        <path class="cls-2" d="M295.56,99.48h-12.54c-.78,0-1.4-.26-1.85-.78-.42-.45-.63-1.02-.63-1.7s.21-1.25.63-1.7c.45-.52,1.07-.78,1.85-.78h12.54c.47,0,.87-.17,1.2-.5.33-.33.49-.73.49-1.2,0-.51-.16-.91-.47-1.23-.31-.31-.72-.47-1.23-.47h-8.36c-1.81,0-3.38-.66-4.69-1.97s-1.97-2.88-1.97-4.69.66-3.38,1.97-4.69c1.32-1.32,2.88-1.97,4.69-1.97h12.54c.78,0,1.4.26,1.85.78.42.45.63,1.02.63,1.7s-.21,1.25-.63,1.7c-.45.52-1.07.78-1.85.78h-12.54c-.44,0-.83.17-1.18.52-.35.35-.52.74-.52,1.18s.17.83.52,1.18c.35.35.74.52,1.18.52h8.36c1.86,0,3.44.64,4.73,1.93s1.93,2.87,1.93,4.73-.65,3.42-1.95,4.72c-1.3,1.3-2.87,1.95-4.72,1.95Z"/>
      </g>
      <g>
        <path class="cls-2" d="M59.72,84.91l.54-2.55c.57-2.72,2.06-5.06,4.45-7.04,2.39-1.97,4.94-2.96,7.66-2.96h12.54c2.38,0,4.32.75,5.84,2.25,1.51,1.5,2.27,3.39,2.27,5.66,0,.68-.08,1.37-.24,2.08-.58,2.74-2.04,5.1-4.39,7.06-2.35,1.96-4.9,2.94-7.64,2.94h-15.17l-.54,2.55c-.03.16-.05.31-.05.47,0,.57.2,1.06.59,1.47.39.4.88.61,1.45.61h37.43v-22.4c0-7.47-6.06-13.53-13.53-13.53h-27.16c-7.47,0-13.53,6.06-13.53,13.53v9.86h9.47Z"/>
        <path class="cls-2" d="M65.48,104.9c-2.35,0-4.29-.77-5.8-2.29-1.52-1.53-2.27-3.43-2.27-5.7,0-.65.07-1.32.2-2l.54-2.55h-7.89v9.86c0,7.47,6.06,13.53,13.53,13.53h27.16c6.55,0,12.02-4.66,13.26-10.84h-38.73Z"/>
        <path class="cls-2" d="M84.45,83.95c.63-.64.94-1.35.94-2.14,0-.57-.19-1.05-.57-1.43-.38-.38-.87-.57-1.47-.57h-12.54c-.65,0-1.3.26-1.94.78-.64.52-1.03,1.11-1.16,1.76l-.54,2.55h15.15c.78,0,1.49-.32,2.12-.96Z"/>
      </g>
    </g>
  </g>
</svg>